<svg xmlns="http://www.w3.org/2000/svg" width="31" height="23.19" viewBox="0 0 31 23.19">
  <defs>
    <style>
      .cls-1 {
        fill: #d8d8d8;
        fill-rule: evenodd;
      }
    </style>
  </defs>
  <path id="Twitter" class="cls-1" d="M331.334,1657.2s4.188,1.68,5.929,1.68a5.46,5.46,0,0,0,5.5-1.97,0.788,0.788,0,0,0-.189-1.17s-7.14-2.22-6.634-3.45c0,0-.032-0.7.886-0.54,0,0,1.033-.9.527-1.22,0,0-.791-0.69-0.159-0.76a20.129,20.129,0,0,1,2.215.26s0.412-.14.032-0.43a2.1,2.1,0,0,1-.886-1.05s0.221-.54,1.234-0.1c0,0,.316-0.06.032-0.38,0,0-.855-0.5-0.443-0.91,0,0,1.284-.84,4.227,2.74,0,0,.538.72,0.6,0.03,0,0,2.133-9.17,5.582-9.78,0,0,1.108.23,1.329-.12a1.677,1.677,0,0,1,1.275-.07,0.5,0.5,0,0,0,.7.19s1.36-.53.949,0.35a6.968,6.968,0,0,1-1.877,1.37c-0.474.03-.379,0.48,0.032,0.54,0,0,5.79.51,5.79,4.75,0,0,.333,1.01,1.409-0.04a11.83,11.83,0,0,1,2.04-1.08s0.443-.29.38,0.38a7.746,7.746,0,0,1-2.373,2.59s-0.728.92,0.317,0.73a6.536,6.536,0,0,0,1.49-.49s1.234-.6.664,0.47a15.909,15.909,0,0,1-3.167,1.69,0.488,0.488,0,0,0-.38.44S358.02,1663,343.528,1663c0,0-7.257.59-12-4.98C331.524,1658.02,330.607,1657.04,331.334,1657.2Z" transform="translate(-331.063 -1639.84)"/>
</svg>
